<svg width="976" height="974" viewBox="0 0 976 974" fill="none" xmlns="http://www.w3.org/2000/svg">
<path d="M573.706 310.144L534.388 352.439L556.873 434.739L539.825 477.173V554.05L562.271 582.373L562.272 633.347L539.825 702.365L591.695 621.628L671.221 728.089L805.891 697.069L790.307 642.972L706.091 587.823L715.71 612.037L642.875 599.033L638.066 568.012L600.059 560.615L580.8 534.03L589.231 466.362L617.007 458.403L607.493 389.85L629.031 420.639L701.281 474.393L729.079 477.398L701.282 546.799L748.834 585.912L805.299 539.325L924.344 670.151L953.93 643.176L849.788 428.731L740.163 357.481L762.012 420.639L677.233 389.85L656.792 285.999L683.245 308.927L724.127 298.138L805.891 357.481L777.033 285.999L701.281 209.123L607.493 195.635L573.706 252.281L601.121 320.933L573.706 310.144Z" fill="url(#paint0_linear_21_29)"/>
<path d="M403.255 311.304L442.272 353.275L419.959 434.946L436.877 477.056V553.344L414.602 581.451L414.601 632.035L436.877 700.525L385.404 620.405L306.486 726.052L172.846 695.269L188.31 641.586L271.883 586.859L262.337 610.887L334.615 597.983L339.388 567.2L377.103 559.859L396.215 533.477L387.849 466.328L360.286 458.429L369.726 390.401L348.353 420.954L276.656 474.297L249.07 477.279L276.655 546.149L229.467 584.962L173.433 538.732L55.2992 668.557L25.9399 641.789L129.285 428.984L238.071 358.279L216.389 420.954L300.52 390.401L320.804 287.344L294.554 310.097L253.985 299.39L172.846 358.279L201.483 287.344L276.656 211.056L369.726 197.672L403.255 253.884L376.05 322.011L403.255 311.304Z" fill="url(#paint1_linear_21_29)"/>
<path d="M457.591 354.353H519.182L539.826 434.327L521.929 476.979V562.285L544.732 587.784V631.884L491.206 810.496L432.278 631.884V589.406L453.698 562.285L453.698 476.979L438.576 434.327L457.591 354.353Z" fill="url(#paint2_linear_21_29)"/>
<path d="M113.686 654.102C156.971 760.486 228.637 831.912 326.561 876.594C392.4 907.983 466.655 918.221 537.669 907.983C600.771 899.802 662.397 871.967 715.257 833.661C780.092 784.596 836.555 722.542 868.595 643.239C883.398 664.965 883.398 664.965 888.332 670.396C898.2 681.259 904.568 688.958 903.134 692.121C838.27 819.187 713.75 930.392 583.802 960.217C530.12 974.589 474.381 977.128 419.802 967.688C378.922 960.25 338.107 948.682 299.998 930.529C211.823 888.695 137.199 818.555 85.9002 729.299C82.2362 721.777 76.5426 714.553 74.2139 706.439C89.016 681.259 93.9501 675.827 108.752 659.533C116.303 651.221 109.439 660.035 113.686 654.102Z" fill="url(#paint3_linear_21_29)"/>
<path d="M456.219 1.55544C511.33 -3.55341 564.902 5.30688 617.981 21.0446C718.232 51.2677 808.878 119.023 872.35 209.355C917.178 272.306 948.377 345.654 963.58 423.837C977.54 487.407 979.21 553.092 971.2 617.771C954.632 583.744 936.437 550.624 919.456 516.831C916.403 509.47 917.116 500.039 916.111 492.089C909.804 413.117 883.388 338.467 843.565 272.786C812.998 224.347 774.97 182.15 731.196 148.097C688.622 116.028 641.378 92.1919 591.502 77.6167C524.343 59.3399 454.168 59.1134 386.913 76.9562C336.146 91.4279 288.056 115.503 244.796 148.103C187.293 193.135 137.741 252.887 105.799 322.355C80.3887 376.14 64.0108 434.777 59.6239 495.269C58.8441 502.183 59.3321 510.469 56.5366 516.837C39.5579 550.613 21.3604 583.733 4.78872 617.776C-3.31934 552.399 -1.45079 485.984 12.8477 421.769C37.5753 294.507 107.57 178.985 203.577 103.196C277.226 43.4804 365.337 10.13 456.219 1.55544Z" fill="url(#paint4_linear_21_29)"/>
<path d="M573.706 310.144L534.388 352.439L556.873 434.739L539.825 477.173V554.05L562.271 582.373L562.272 633.347L539.825 702.365L591.695 621.628L671.221 728.089L805.891 697.069L790.307 642.972L706.091 587.823L715.71 612.037L642.875 599.033L638.066 568.012L600.059 560.615L580.8 534.03L589.231 466.362L617.007 458.403L607.493 389.85L629.031 420.639L701.281 474.393L729.079 477.398L701.282 546.799L748.834 585.912L805.299 539.325L924.344 670.151L953.93 643.176L849.788 428.731L740.163 357.481L762.012 420.639L677.233 389.85L656.792 285.999L683.245 308.927L724.127 298.138L805.891 357.481L777.033 285.999L701.281 209.123L607.493 195.635L573.706 252.281L601.121 320.933L573.706 310.144Z" fill="url(#paint5_linear_21_29)"/>
<path d="M403.255 311.304L442.272 353.275L419.959 434.946L436.877 477.056V553.344L414.602 581.451L414.601 632.035L436.877 700.525L385.404 620.405L306.486 726.052L172.846 695.269L188.31 641.586L271.883 586.859L262.337 610.887L334.615 597.983L339.388 567.2L377.103 559.859L396.215 533.477L387.849 466.328L360.286 458.429L369.726 390.401L348.353 420.954L276.656 474.297L249.07 477.279L276.655 546.149L229.467 584.962L173.433 538.732L55.2992 668.557L25.9399 641.789L129.285 428.984L238.071 358.279L216.389 420.954L300.52 390.401L320.804 287.344L294.554 310.097L253.985 299.39L172.846 358.279L201.483 287.344L276.656 211.056L369.726 197.672L403.255 253.884L376.05 322.011L403.255 311.304Z" fill="url(#paint6_linear_21_29)"/>
<path d="M457.591 354.353H519.182L539.826 434.327L521.929 476.979V562.285L544.732 587.784V631.884L491.206 810.496L432.278 631.884V589.406L453.698 562.285L453.698 476.979L438.576 434.327L457.591 354.353Z" fill="url(#paint7_linear_21_29)"/>
<path d="M113.686 654.102C156.971 760.486 228.637 831.912 326.561 876.594C392.4 907.983 466.655 918.221 537.669 907.983C600.771 899.802 662.397 871.967 715.257 833.661C780.092 784.596 836.555 722.542 868.595 643.239C883.398 664.965 883.398 664.965 888.332 670.396C898.2 681.259 904.568 688.958 903.134 692.121C838.27 819.187 713.75 930.392 583.802 960.217C530.12 974.589 474.381 977.128 419.802 967.688C378.922 960.25 338.107 948.682 299.998 930.529C211.823 888.695 137.199 818.555 85.9002 729.299C82.2362 721.777 76.5426 714.553 74.2139 706.439C89.016 681.259 93.9501 675.827 108.752 659.533C116.303 651.221 109.439 660.035 113.686 654.102Z" fill="url(#paint8_linear_21_29)"/>
<path d="M456.219 1.55544C511.33 -3.55341 564.902 5.30688 617.981 21.0446C718.232 51.2677 808.878 119.023 872.35 209.355C917.178 272.306 948.377 345.654 963.58 423.837C977.54 487.407 979.21 553.092 971.2 617.771C954.632 583.744 936.437 550.624 919.456 516.831C916.403 509.47 917.116 500.039 916.111 492.089C909.804 413.117 883.388 338.467 843.565 272.786C812.998 224.347 774.97 182.15 731.196 148.097C688.622 116.028 641.378 92.1919 591.502 77.6167C524.343 59.3399 454.168 59.1134 386.913 76.9562C336.146 91.4279 288.056 115.503 244.796 148.103C187.293 193.135 137.741 252.887 105.799 322.355C80.3887 376.14 64.0108 434.777 59.6239 495.269C58.8441 502.183 59.3321 510.469 56.5366 516.837C39.5579 550.613 21.3604 583.733 4.78872 617.776C-3.31934 552.399 -1.45079 485.984 12.8477 421.769C37.5753 294.507 107.57 178.985 203.577 103.196C277.226 43.4804 365.337 10.13 456.219 1.55544Z" fill="url(#paint9_linear_21_29)"/>
<defs>
<linearGradient id="paint0_linear_21_29" x1="744.159" y1="195.635" x2="744.159" y2="728.089" gradientUnits="userSpaceOnUse">
<stop stop-color="#00C0FC"/>
<stop offset="1" stop-color="#0056BA"/>
</linearGradient>
<linearGradient id="paint1_linear_21_29" x1="234.106" y1="197.672" x2="234.106" y2="726.052" gradientUnits="userSpaceOnUse">
<stop stop-color="#00C0FC"/>
<stop offset="1" stop-color="#0056BA"/>
</linearGradient>
<linearGradient id="paint2_linear_21_29" x1="488.505" y1="354.353" x2="488.505" y2="810.496" gradientUnits="userSpaceOnUse">
<stop stop-color="white"/>
<stop offset="1" stop-color="#79829B"/>
</linearGradient>
<linearGradient id="paint3_linear_21_29" x1="488.774" y1="643.239" x2="488.774" y2="973.276" gradientUnits="userSpaceOnUse">
<stop stop-color="white"/>
<stop offset="1" stop-color="#79829B"/>
</linearGradient>
<linearGradient id="paint4_linear_21_29" x1="488" y1="0.107422" x2="488" y2="617.776" gradientUnits="userSpaceOnUse">
<stop stop-color="white"/>
<stop offset="1" stop-color="#79829B"/>
</linearGradient>
<linearGradient id="paint5_linear_21_29" x1="744.159" y1="195.635" x2="744.159" y2="728.089" gradientUnits="userSpaceOnUse">
<stop stop-color="#00C0FC"/>
<stop offset="1" stop-color="#0056BA"/>
</linearGradient>
<linearGradient id="paint6_linear_21_29" x1="234.106" y1="197.672" x2="234.106" y2="726.052" gradientUnits="userSpaceOnUse">
<stop stop-color="#00C0FC"/>
<stop offset="1" stop-color="#0056BA"/>
</linearGradient>
<linearGradient id="paint7_linear_21_29" x1="488.505" y1="354.353" x2="488.505" y2="810.496" gradientUnits="userSpaceOnUse">
<stop stop-color="white"/>
<stop offset="1" stop-color="#79829B"/>
</linearGradient>
<linearGradient id="paint8_linear_21_29" x1="488.774" y1="643.239" x2="488.774" y2="973.276" gradientUnits="userSpaceOnUse">
<stop stop-color="white"/>
<stop offset="1" stop-color="#79829B"/>
</linearGradient>
<linearGradient id="paint9_linear_21_29" x1="488" y1="0.107422" x2="488" y2="617.776" gradientUnits="userSpaceOnUse">
<stop stop-color="white"/>
<stop offset="1" stop-color="#79829B"/>
</linearGradient>
</defs>
</svg>
